<?xml version="1.0" encoding="UTF-8"?>
<svg version="1.1" xmlns="http://www.w3.org/2000/svg" width="199" height="142">
<path d="M0 0 C5.52870125 3.62520256 8.90811315 7.62448263 10.53515625 14.14453125 C12.49015115 25.89348118 6.04101892 37.94643263 1.73608398 48.68823242 C0.92463337 50.71971181 0.12918097 52.75703331 -0.66601562 54.79492188 C-1.18394495 56.09673288 -1.70278997 57.39818004 -2.22265625 58.69921875 C-2.91500366 60.44464966 -2.91500366 60.44464966 -3.62133789 62.2253418 C-5 65 -5 65 -8 67 C-14.09326425 67.54404145 -14.09326425 67.54404145 -16.875 65.875 C-18.74167518 62.76387469 -19.42190938 59.70310494 -18.53466797 56.12161255 C-17.75822425 53.97520371 -16.8984865 51.88340357 -16 49.78515625 C-15.52820313 48.62420692 -15.52820313 48.62420692 -15.046875 47.43980408 C-13.7073062 44.14356198 -12.33437595 40.86159251 -10.9609375 37.5793457 C-9.9603708 35.17411892 -8.97972095 32.76143309 -8 30.34765625 C-7.52820313 29.24889915 -7.52820313 29.24889915 -7.046875 28.12794495 C-5.07435919 23.25321815 -4.81337435 20.14049938 -6 15 C-8.71895528 13.62036318 -8.71895528 13.62036318 -12 13 C-16.17492795 15.62635225 -17.90478445 18.18879364 -19.71484375 22.7109375 C-20.07702248 23.60152359 -20.07702248 23.60152359 -20.44651794 24.51010132 C-21.31556395 26.66669886 -22.15842548 28.83253653 -23 31 C-23.72540822 32.84668556 -24.45083244 34.69336484 -25.17626953 36.54003906 C-27.66109827 42.89295675 -30.11316419 49.25833177 -32.5625 55.625 C-33.8248423 58.90306871 -35.08798394 62.18082201 -36.35301208 65.45785522 C-37.13383626 67.4808439 -37.91314422 69.5044188 -38.69056702 71.52871704 C-48.61059609 97.24464347 -48.61059609 97.24464347 -57.5546875 101.30859375 C-63.76797074 103.0653847 -70.41611041 102.87667683 -76.5 100.8125 C-81.50466408 97.18411854 -86.01894526 92.94316422 -88 87 C-88.90709697 80.07620919 -88.01539268 74.18160542 -85.43359375 67.734375 C-85.16795624 67.0488002 -84.90231873 66.3632254 -84.62863159 65.65687561 C-83.76336653 63.43343874 -82.88336002 61.21630506 -82 59 C-81.39801108 57.48137167 -80.79604184 55.96273554 -80.1940918 54.4440918 C-79.58006848 52.89886493 -78.96589109 51.35369928 -78.3515625 49.80859375 C-78.0459993 49.03941116 -77.7404361 48.27022858 -77.4256134 47.47773743 C-77.11887192 46.70584579 -76.81213043 45.93395416 -76.49609375 45.13867188 C-76.18913574 44.36579834 -75.88217773 43.5929248 -75.56591797 42.79663086 C-74.93161867 41.20627432 -74.29351296 39.61743132 -73.65185547 38.0300293 C-72.70731755 35.68964246 -71.77817532 33.34362515 -70.8515625 30.99609375 C-70.56415192 30.29495956 -70.27674133 29.59382538 -69.98062134 28.8714447 C-68.25528535 24.45055842 -67.56830609 20.82208877 -68 16 C-70.18660311 13.30879617 -71.5084758 13.05228981 -74.9375 12.6875 C-80.29372355 14.98302438 -81.66059632 20.73107961 -83.78860474 25.9246521 C-85.61357922 30.50028732 -87.36331724 35.10408849 -89.1036377 39.71246338 C-90.74065412 44.04466948 -92.39658998 48.36964173 -94.05078125 52.6953125 C-94.38246307 53.56368744 -94.7141449 54.43206238 -95.05587769 55.32675171 C-97.97854381 62.96882472 -100.95169582 70.58994933 -103.97994995 78.1907959 C-104.48890232 79.46917742 -104.99619597 80.7482207 -105.5017395 82.0279541 C-106.19979465 83.79385507 -106.90443416 85.55714898 -107.609375 87.3203125 C-108.00092773 88.30273926 -108.39248047 89.28516602 -108.79589844 90.29736328 C-110.02316295 93.05198984 -111.25903607 95.53445102 -113 98 C-117.0821801 99.28513077 -119.09229565 99.41603116 -123 97.625 C-125 95 -125 95 -124.88256836 91.03320312 C-124.08942621 85.30227841 -122.0390031 80.18109499 -119.87890625 74.84375 C-119.46011703 73.78377808 -119.04132782 72.72380615 -118.60984802 71.63171387 C-117.27102149 68.2502827 -115.91706297 64.87515368 -114.5625 61.5 C-113.6871469 59.29597146 -112.81278995 57.09154701 -111.93945312 54.88671875 C-110.19069549 50.47604626 -108.42967117 46.07054762 -106.66064453 41.66796875 C-104.84527945 37.14185528 -103.06959861 32.60263967 -101.31982422 28.05078125 C-100.88242416 26.92506714 -100.44502411 25.79935303 -99.99436951 24.63952637 C-99.1682414 22.51160244 -98.35136091 20.38005436 -97.54579163 18.2442627 C-94.653249 10.84428093 -91.33111872 3.81311142 -84.375 -0.5 C-78.47722121 -3.0308476 -71.79965049 -3.07381427 -65.6640625 -1.33984375 C-59.91698745 1.20340211 -55.54577891 5.58891155 -52.95239258 11.31176758 C-49.67003354 20.57658566 -53.03849114 29.12754242 -56.61636353 37.76708984 C-57.45292487 39.78724853 -58.26546756 41.81573356 -59.07299805 43.84765625 C-61.16810102 49.1016318 -63.31408232 54.33426511 -65.46777344 59.56445312 C-66.35469422 61.72066454 -67.23629761 63.8790739 -68.11157227 66.04003906 C-68.89052272 67.95994053 -69.6844372 69.87386442 -70.49584961 71.78027344 C-72.64237276 77.05989575 -73.41517686 80.43010606 -72 86 C-67.42421502 86.98696878 -67.42421502 86.98696878 -62.89982605 86.30741882 C-60.44989467 84.62142952 -59.91368465 83.22160317 -58.8527832 80.45629883 C-58.48171951 79.50962845 -58.11065582 78.56295807 -57.72834778 77.58760071 C-57.33975082 76.55451279 -56.95115387 75.52142487 -56.55078125 74.45703125 C-56.1338652 73.38241135 -55.71694916 72.30779144 -55.28739929 71.2006073 C-53.94927967 67.7428116 -52.63058154 64.27797713 -51.3125 60.8125 C-50.44465051 58.55874719 -49.57552271 56.30548618 -48.70507812 54.05273438 C-43.59647022 40.81897559 -43.59647022 40.81897559 -38.59521484 27.54443359 C-37.82791086 25.51265325 -37.06050049 23.48091307 -36.29296875 21.44921875 C-35.96218826 20.53960892 -35.63140778 19.62999908 -35.29060364 18.69282532 C-32.36286355 11.00599549 -28.43415541 2.62167092 -21.0625 -1.625 C-13.87183075 -4.54275233 -6.82426486 -3.27123648 0 0 Z " fill="#EE9A28" transform="translate(142,25)"/>
<path d="M0 0 C3.625 0.375 3.625 0.375 6.0625 2 C8.12373246 5.13307334 7.94909414 6.63715014 7.625 10.375 C6.77411342 13.32884491 5.64268133 16.14691783 4.484375 18.9921875 C4.16092102 19.80817413 3.83746704 20.62416077 3.50421143 21.46487427 C2.81962082 23.1863451 2.13012212 24.90587121 1.43603516 26.62353516 C0.38285309 29.23056063 -0.65557434 31.84307027 -1.69140625 34.45703125 C-2.36111848 36.13576028 -3.0316648 37.81415685 -3.703125 39.4921875 C-4.01058655 40.2632785 -4.3180481 41.03436951 -4.63482666 41.8288269 C-9.94749333 54.94749333 -9.94749333 54.94749333 -13.375 58.375 C-17.26701406 58.80744601 -19.50730302 58.95346465 -22.8125 56.75 C-24.87373246 53.61692666 -24.69909414 52.11284986 -24.375 48.375 C-23.52411342 45.42115509 -22.39268133 42.60308217 -21.234375 39.7578125 C-20.91092102 38.94182587 -20.58746704 38.12583923 -20.25421143 37.28512573 C-19.56962082 35.5636549 -18.88012212 33.84412879 -18.18603516 32.12646484 C-17.13285309 29.51943937 -16.09442566 26.90692973 -15.05859375 24.29296875 C-14.38888152 22.61423972 -13.7183352 20.93584315 -13.046875 19.2578125 C-12.73941345 18.4867215 -12.4319519 17.71563049 -12.11517334 16.9211731 C-5.51056241 0.61228471 -5.51056241 0.61228471 0 0 Z " fill="#EE9A28" transform="translate(177.375,33.625)"/>
</svg>
